<?xml version="1.0" encoding="utf-8"?>
<!-- Generator: Adobe Illustrator 17.1.0, SVG Export Plug-In . SVG Version: 6.00 Build 0)  -->
<!DOCTYPE svg PUBLIC "-//W3C//DTD SVG 1.1//EN" "http://www.w3.org/Graphics/SVG/1.1/DTD/svg11.dtd">
<svg version="1.1" id="Layer_1" xmlns="http://www.w3.org/2000/svg" xmlns:xlink="http://www.w3.org/1999/xlink" x="0px" y="0px"
	 viewBox="0 0 360.5 86.5" enable-background="new 0 0 360.5 86.5" xml:space="preserve">
<polygon fill="#FFFFFF" points="326.4,0 323.1,0.4 320.1,1.1 317.5,2.2 314.9,3.3 312.3,4.8 309.7,6.7 307.5,8.9 305.3,11.1 
	303.4,13.4 301.9,16 300.8,18.9 299.7,21.5 298.9,24.5 298.6,27.5 298.6,30.8 298.6,78.7 298.6,80.2 298.9,81.6 299.7,83.1 
	300.8,84.2 301.9,85.3 303.4,86.1 304.9,86.5 306.7,86.5 308.2,86.5 310.1,86.1 311.2,85.3 312.7,84.2 313.8,83.1 314.2,81.6 
	314.9,80.2 314.9,78.7 314.9,30.8 315.3,27.8 316,25.2 317.1,22.6 319,20.4 321.6,18.6 323.8,17.4 326.4,16.3 329.4,16.3 
	332.3,16.3 334.9,17.4 337.5,18.6 339.7,20.4 341.6,22.6 343.1,25.2 343.8,27.8 344.2,30.8 343.8,33.8 343.1,36.4 341.6,39 
	339.7,41.2 337.5,43 334.9,44.5 332.3,45.3 329.4,45.6 327.9,45.6 326,46 324.9,46.8 323.4,47.9 322.7,49 321.9,50.5 321.6,52 
	321.2,53.8 321.6,55.7 321.9,57.1 322.7,58.6 323.4,59.7 324.9,60.9 326,61.6 327.9,62 329.4,62 333.4,61.6 337.2,61.2 340.5,60.1 
	344.2,58.3 344.2,61.6 344.2,75 344.2,78.7 344.2,80.2 344.6,81.6 345.3,83.1 346.4,84.2 347.5,85.3 349,86.1 350.5,86.5 
	352.4,86.5 354.2,86.5 355.7,86.1 357.2,85.3 358.3,84.2 359.4,83.1 359.8,81.6 360.5,80.2 360.5,27.5 359.8,24.5 359.4,21.5 
	358.3,18.9 357.2,16 355.3,13.4 353.5,11.1 351.6,8.9 349.4,6.7 346.8,4.8 344.2,3.3 341.6,2.2 338.6,1.1 335.7,0.4 332.7,0 "/>
<polygon fill="#FFFFFF" points="226.6,0 223.7,0.4 220.7,1.1 217.7,2.2 215.1,3.3 212.5,4.8 209.9,6.7 207.7,8.9 205.9,11.1 
	204,13.4 202.5,16 201,18.9 200.3,21.5 199.5,24.5 199.2,27.5 198.8,30.8 198.8,78.7 199.2,80.2 199.5,81.6 200.3,83.1 201,84.2 
	202.5,85.3 203.6,86.1 205.5,86.5 207,86.5 208.8,86.5 210.3,86.1 211.8,85.3 212.9,84.2 214,83.1 214.8,81.6 215.1,80.2 
	215.1,78.7 215.1,30.8 215.5,27.8 216.2,25.2 217.7,22.6 219.6,20.4 221.8,18.6 224.4,17.4 227,16.3 230,16.3 232.9,16.3 
	235.5,17.4 238.1,18.6 240.3,20.4 242.2,22.6 243.3,25.2 244.1,27.8 244.4,30.8 244.1,33.8 243.3,36.4 242.2,39 240.3,41.2 
	238.1,43 235.5,44.5 232.9,45.3 230,45.6 228.1,45.6 226.6,46 225.1,46.8 224,47.9 222.9,49 222.2,50.5 221.8,52 221.8,53.8 
	221.8,55.7 222.2,57.1 222.9,58.6 224,59.7 225.1,60.9 226.6,61.6 228.1,62 230,62 232.9,62 236.3,61.6 239.2,60.9 241.8,59.7 
	244.4,58.6 247,56.8 249.6,55.3 251.8,53.1 254.1,50.8 255.9,48.2 257.4,45.6 258.5,43 259.6,40.1 260.4,37.1 260.7,34.1 
	260.7,30.8 260.7,27.8 260.4,24.5 259.6,21.5 258.5,18.9 257.4,16 255.9,13.4 254.1,11.1 251.8,8.9 249.6,6.7 247,4.8 244.4,3.3 
	241.8,2.2 239.2,1.1 236.3,0.4 232.9,0 "/>
<polygon fill="#FFFFFF" points="148.4,0 146.9,0.4 145.4,1.1 144.3,2.2 143.2,3.3 142.4,4.8 142.1,6.3 141.7,8.2 141.7,24.5 
	141.7,26.3 140.9,28.2 140.2,30.1 139.1,31.5 137.6,32.7 135.8,33.8 133.9,34.1 132,34.5 130.2,34.1 128.3,33.8 126.5,32.7 
	125,31.5 123.9,30.1 123.1,28.2 122.4,26.3 122.4,24.5 122.4,8.2 122,6.3 121.7,4.8 120.9,3.3 119.8,2.2 118.7,1.1 117.2,0.4 
	115.7,0 112.4,0 110.5,0.4 109.4,1.1 107.9,2.2 107.2,3.3 106.4,4.8 106.1,6.3 105.7,8.2 105.7,24.5 106.1,27.1 106.4,29.7 
	106.8,32.3 107.9,34.9 108.7,37.1 110.2,39.3 111.6,41.2 113.5,43 115.4,44.9 117.2,46.4 119.4,47.9 121.7,49 124.3,49.7 
	126.8,50.1 129.4,50.5 132,50.8 134.6,50.5 136.9,50.1 139.5,49.7 141.7,48.6 141.7,60.5 141.7,62.3 140.9,64.2 140.2,66.1 
	139.1,67.5 137.6,68.6 135.8,69.4 133.9,70.1 132,70.1 130.2,70.1 128.3,69.4 126.5,68.6 125,67.5 123.9,66.1 123.1,64.2 
	122.4,62.3 122.4,60.5 122.4,59.4 122,57.5 121.7,56 120.9,54.5 119.8,53.4 118.7,52.3 117.2,51.6 115.7,51.2 113.9,51.2 
	112.4,51.2 110.5,51.6 109.4,52.3 107.9,53.4 107.2,54.5 106.4,56 106.1,57.5 105.7,59.4 105.7,60.5 106.1,63.1 106.4,65.7 
	106.8,68.3 107.9,70.5 108.7,73.1 110.2,75 111.6,77.2 113.5,79 115.4,80.9 117.2,82.4 119.4,83.9 121.7,84.6 124.3,85.7 
	126.8,86.1 129.4,86.5 132,86.5 134.6,86.5 137.2,86.1 139.8,85.7 142.1,84.6 144.7,83.5 146.5,82.4 148.7,80.9 150.6,79 
	152.4,77.2 153.9,75 155,72.7 156.2,70.5 157.3,68.3 157.6,65.7 158,63.1 158,60.5 158,8.2 158,6.3 157.6,4.8 156.9,3.3 155.8,2.2 
	154.7,1.1 153.2,0.4 151.7,0 "/>
<polygon fill="#FFFFFF" points="27.8,0 24.9,0.4 21.9,1.1 18.9,2.2 16.3,3.3 13.7,4.8 11.1,6.7 8.9,8.9 7,11.1 5.2,13.4 3.7,16 
	2.2,18.9 1.5,21.5 0.7,24.5 0,27.5 0,30.8 0,78.7 0,80.2 0.7,81.6 1.5,83.1 2.2,84.2 3.3,85.3 4.8,86.1 6.3,86.5 8.2,86.5 10,86.5 
	11.5,86.1 13,85.3 14.1,84.2 15.2,83.1 15.9,81.6 16.3,80.2 16.3,78.7 16.3,30.8 16.7,27.8 17.4,25.2 18.9,22.6 20.8,20.4 23,18.6 
	25.2,17.4 28.2,16.3 31.2,16.3 33.8,16.3 36.7,17.4 38.9,18.6 41.2,20.4 43.4,22.6 44.5,25.2 45.3,27.8 45.6,30.8 45.3,33.8 
	44.5,36.4 43.4,39 41.2,41.2 38.9,43 36.7,44.5 33.8,45.3 31.2,45.6 29.3,45.6 27.8,46 26.3,46.8 25.2,47.9 24.1,49 23.4,50.5 
	23,52 23,53.8 23,55.7 23.4,57.1 24.1,58.6 25.2,59.7 26.3,60.9 27.8,61.6 29.3,62 31.2,62 34.9,61.6 38.6,61.2 42.3,60.1 
	45.6,58.3 45.6,61.6 45.6,75 45.6,78.7 45.6,80.2 46.4,81.6 47.1,83.1 47.8,84.2 49.3,85.3 50.4,86.1 52.3,86.5 53.8,86.5 
	55.6,86.5 57.1,86.1 58.6,85.3 59.7,84.2 60.8,83.1 61.6,81.6 61.9,80.2 61.9,78.7 61.9,75 61.9,61.6 61.9,30.8 61.9,27.5 
	61.6,24.5 60.8,21.5 59.7,18.9 58.6,16 57.1,13.4 55.3,11.1 53,8.9 50.8,6.7 48.2,4.8 45.6,3.3 43,2.2 40.1,1.1 37.1,0.4 34.1,0 "/>
</svg>
