<?xml version="1.0" encoding="utf-8"?>
<!-- Generator: Adobe Illustrator 17.1.0, SVG Export Plug-In . SVG Version: 6.00 Build 0)  -->
<!DOCTYPE svg PUBLIC "-//W3C//DTD SVG 1.1//EN" "http://www.w3.org/Graphics/SVG/1.1/DTD/svg11.dtd">
<svg version="1.1" id="Layer_1" xmlns="http://www.w3.org/2000/svg" xmlns:xlink="http://www.w3.org/1999/xlink" x="0px" y="0px"
	 viewBox="0 0 183.4 90" enable-background="new 0 0 183.4 90" xml:space="preserve">
<polygon fill="#231F20" points="91.7,0 0,40.4 91.7,80.7 183.4,40.4 "/>
<g>
	<defs>
		<rect id="SVGID_1_" y="0" width="183.4" height="90"/>
	</defs>
	<clipPath id="SVGID_2_">
		<use xlink:href="#SVGID_1_"  overflow="visible"/>
	</clipPath>
	<path clip-path="url(#SVGID_2_)" fill="#414042" d="M140.2,48.9c-8.3-2.1-25.1-5.4-48.9-5.4c-35.1,0-54.1,7.2-54.1,7.2V90
		c0,0,26.4-7.1,54.4-7.2v0c18.1,0,35.6,3,45.7,5.1c5.5,1.2,8.9,2.1,8.9,2.1v0V50.6v0C146.2,50.6,144.2,49.9,140.2,48.9"/>
	<path clip-path="url(#SVGID_2_)" fill="#FEC00F" d="M166.8,82.6c-1.2-1.2-1.5-4-2.2-11.3c-0.1-1.1-0.6-2-1.3-2.6l0-2.2
		c0.8-0.6,1.3-1.6,1.3-2.7c0-1.4-0.7-2.5-1.8-3V31.6c0-0.6-0.5-1.2-1-1.2c-0.6,0-1,0.5-1,1.2v29.1c-1.1,0.5-1.8,1.6-1.8,3
		c0,1.1,0.5,2.1,1.3,2.7v2.2c-0.7,0.6-1.2,1.5-1.3,2.6c-0.7,7.4-1,10.1-2.2,11.3c-0.4,1.7,1.8,3.7,5,3.7c0,0,0,0,0,0c0,0,0,0,0,0
		C164.9,86.3,167.2,84.3,166.8,82.6"/>
</g>
</svg>
