<?xml version="1.0" encoding="utf-8"?>
<!-- Generator: Adobe Illustrator 17.1.0, SVG Export Plug-In . SVG Version: 6.00 Build 0)  -->
<!DOCTYPE svg PUBLIC "-//W3C//DTD SVG 1.1//EN" "http://www.w3.org/Graphics/SVG/1.1/DTD/svg11.dtd">
<svg version="1.1" id="Layer_1" xmlns="http://www.w3.org/2000/svg" xmlns:xlink="http://www.w3.org/1999/xlink" x="0px" y="0px"
	 viewBox="0 0 321.7 425.6" enable-background="new 0 0 321.7 425.6" xml:space="preserve">
<g>
	<defs>
		<rect id="SVGID_1_" width="321.7" height="425.6"/>
	</defs>
	<clipPath id="SVGID_2_">
		<use xlink:href="#SVGID_1_"  overflow="visible"/>
	</clipPath>
	<g clip-path="url(#SVGID_2_)">
		<defs>
			<rect id="SVGID_3_" width="321.7" height="425.6"/>
		</defs>
		<clipPath id="SVGID_4_">
			<use xlink:href="#SVGID_3_"  overflow="visible"/>
		</clipPath>
		<g opacity="0.3" clip-path="url(#SVGID_4_)">
			<g>
				<defs>
					<rect id="SVGID_5_" width="321.7" height="425.6"/>
				</defs>
				<clipPath id="SVGID_6_">
					<use xlink:href="#SVGID_5_"  overflow="visible"/>
				</clipPath>
				<path clip-path="url(#SVGID_6_)" fill="#1A1A1A" d="M296.9,316.4c-1.2-2.2-2.8-4.4-4.7-6.6c-11.9-13.4-34.9-23.3-55.6-30.3
					l0.2-1.8c-9.9-3.5-35.2-9.1-35.2-9.1l-0.1,0.7c-3-0.8-5.8-1.5-8.6-2.2v-4.8v-28.7c3.3-2,6.4-4.4,9.5-7
					c27.4,5.2,38.6,14.2,38.6,14.2s53-97.6,28-171C241.6-11,161.7,0.6,161.7,0.6S81.8-11,54.4,69.8c-24.9,73.4,28,171,28,171
					s10.9-8.7,37.3-13.9c2.9,2.5,6,4.8,9.2,6.7v5.6v27.9c-1.9,0.5-3.9,1-5.9,1.5v0c-11.1,1.7-22.6,4.7-33.6,8.4
					c-0.5,0.2-1,0.3-1.4,0.5v0c-17,5.9-32.9,13.6-44.7,21.4c-8.5,5.4-15,11.2-18.3,17.4C11.3,364.5,0,425.6,0,425.6h60.8h71.4h9.3
					h19.3h22.1h5.2h4.1h68.2h61.3C321.7,425.6,314.1,360.1,296.9,316.4"/>
			</g>
		</g>
		<path clip-path="url(#SVGID_4_)" fill="#333333" d="M82.4,240.8c0,0,22-17.7,79.3-17.7V0.6c0,0-79.9-11.6-107.3,69.2
			C29.4,143.2,82.4,240.8,82.4,240.8"/>
		<path clip-path="url(#SVGID_4_)" fill="#1A1A1A" d="M241,240.8c0,0-22-17.7-79.3-17.7V0.6c0,0,79.9-11.6,107.3,69.2
			C293.9,143.2,241,240.8,241,240.8"/>
		<path clip-path="url(#SVGID_4_)" fill="#F9D19B" d="M296.9,316.4c-18.3-34.7-136-56.4-136-56.4s-117.7,21.7-136,56.4
			C11.3,364.5,0,425.6,0,425.6h160.9h160.9C321.7,425.6,314.1,360.1,296.9,316.4"/>
		<path clip-path="url(#SVGID_4_)" fill="#F1C08B" d="M160.9,260c0,0,117.7,21.7,136,56.4c17.2,43.7,24.9,109.2,24.9,109.2H160.9
			V260z"/>
		<rect x="128.8" y="189.5" clip-path="url(#SVGID_4_)" fill="#F9D19B" width="64.1" height="107.3"/>
		<rect x="160.9" y="189.5" clip-path="url(#SVGID_4_)" fill="#F1C08B" width="32" height="107.3"/>
		<g opacity="0.1" clip-path="url(#SVGID_4_)">
			<g>
				<defs>
					<rect id="SVGID_7_" x="128.8" y="189.5" width="64.1" height="75.7"/>
				</defs>
				<clipPath id="SVGID_8_">
					<use xlink:href="#SVGID_7_"  overflow="visible"/>
				</clipPath>
				<path clip-path="url(#SVGID_8_)" fill="#DDAC8C" d="M128.8,239.2c5.8,16.5,29,26,46.1,26c6.2,0,12.2-1,18-2.9v-72.8h-64.1V239.2
					z"/>
			</g>
		</g>
		<path clip-path="url(#SVGID_4_)" fill="#FFE1AB" d="M243.3,121.8c0-67-36.9-105.1-82.4-105.1c-45.5,0-82.4,38.1-82.4,105.1
			c0,67,36.9,121.3,82.4,121.3C206.4,243.1,243.3,188.8,243.3,121.8"/>
		<path clip-path="url(#SVGID_4_)" fill="#F8CB96" d="M230.7,168.3c-14.9-1.7-25-18.8-22.5-38.2c2.5-19.4,16.6-33.9,31.6-32.2
			c14.9,1.7,25,18.8,22.5,38.2C259.8,155.5,245.6,169.9,230.7,168.3"/>
		<path clip-path="url(#SVGID_4_)" fill="#FFE1AB" d="M60,136.1c-2.5-19.4,7.5-36.5,22.5-38.2c14.9-1.6,29.1,12.8,31.6,32.2
			c2.5,19.4-7.6,36.5-22.5,38.2C76.7,169.9,62.5,155.5,60,136.1"/>
		<path clip-path="url(#SVGID_4_)" fill="#F8CB96" d="M243.3,121.8c0-67-36.9-105.1-82.4-105.1v226.4
			C206.4,243.1,243.3,188.8,243.3,121.8"/>
		<polygon clip-path="url(#SVGID_4_)" fill="#FFFFFF" points="60.8,425.6 160.9,425.6 260.5,425.6 260.5,317.4 60.8,317.4 		"/>
		<path clip-path="url(#SVGID_4_)" fill="#353535" d="M141.5,425.6l-18.6-157c-41.6,6.5-88.8,30.3-98.1,47.8
			C11.3,364.5,0,425.6,0,425.6H141.5z"/>
		<path clip-path="url(#SVGID_4_)" fill="#353535" d="M188.1,425.6h133.6c0,0-7.6-65.5-24.8-109.2c-15-26.8-74.4-41.3-95.1-47.3
			L188.1,425.6z"/>
		<path clip-path="url(#SVGID_4_)" fill="#1B1B1B" d="M87.9,277.5l3.9,46.9h21.9l-11.6,24.3l30.1,76.8h9.3l-18.6-157
			C122.9,268.6,97.8,274.1,87.9,277.5"/>
		<path clip-path="url(#SVGID_4_)" fill="#1B1B1B" d="M236.7,277.7l-4.1,46.7h-21.9l11.6,24.3l-30.1,76.8H183l18.6-157
			C201.6,268.6,226.8,274.3,236.7,277.7"/>
		<path clip-path="url(#SVGID_4_)" fill="#0E303F" d="M82,126.5c1.6-3.6,5-6.6,8.7-7.2c18.1-2.9,36.4-2.8,54.5,0.3
			c3.6,0.7,6.9,3.4,8.5,6.8h3.4c-1.8-5.1-6.4-9.5-11.7-10.5c-9.1-1.6-18.3-2.5-27.4-2.6c-9.1-0.1-18.4,0.7-27.4,2.2
			c-4.4,0.8-14.1,7.7-14.1,7.7c-1,0.1-1.8,1.2-1.8,2.2v0.9H82z"/>
		<g opacity="0.1" clip-path="url(#SVGID_4_)">
			<g>
				<defs>
					<rect id="SVGID_9_" x="81.1" y="118.9" width="73.7" height="42.4"/>
				</defs>
				<clipPath id="SVGID_10_">
					<use xlink:href="#SVGID_9_"  overflow="visible"/>
				</clipPath>
				<path clip-path="url(#SVGID_10_)" fill="#FFFFFF" d="M151.8,150.8c-1.5,5.1-6.8,9.7-11.1,9.9c-15.1,0.7-30.3,0.7-45.4,0
					c-4.3-0.3-9.6-4.8-11.1-10c-1.7-6.2-2.7-12.3-3-18.5c-0.2-5.2,4.4-10.4,9.6-11.2c18.1-2.8,36.4-2.7,54.5,0.3
					c5.2,0.9,9.8,6.1,9.6,11.3C154.5,138.6,153.5,144.6,151.8,150.8"/>
			</g>
		</g>
		<path clip-path="url(#SVGID_4_)" fill="#0E303F" d="M145.4,117.7c-9.1-1.6-18.3-2.4-27.4-2.5c-9.1-0.1-18.4,0.7-27.4,2.1
			c-4.4,0.7-14.1,7.5-14.1,7.5c-1,0.1-1.8,1.1-1.8,2.2v12.2c0,1,0.9,1.4,1.8,1.7c1.2,0.4,2.7,2.7,3,4.2c0.5,2.3,1,4.5,1.6,6.8
			c1.9,6.3,8.3,12.1,14,12.4c7.6,0.4,15.3,0.6,22.9,0.6c7.6,0,15.3-0.2,22.9-0.6c5.7-0.4,12.1-6.1,14-12.4
			c1.8-6.3,2.8-12.6,3.1-18.9C158.3,126.2,152.6,119,145.4,117.7 M151.8,150.8c-1.5,5.1-6.8,9.7-11.1,9.9c-15.1,0.7-30.3,0.7-45.4,0
			c-4.3-0.3-9.6-4.8-11.1-10c-1.7-6.2-2.7-12.3-3-18.5c-0.2-5.2,4.4-10.4,9.6-11.2c18.1-2.8,36.4-2.7,54.5,0.3
			c5.2,0.9,9.8,6.1,9.6,11.3C154.5,138.6,153.5,144.6,151.8,150.8"/>
		<path clip-path="url(#SVGID_4_)" fill="#2C5871" d="M87,155.7c-1.3-1.5-2.3-3.2-2.8-5.1c-1.7-6.2-2.7-12.4-3-18.5
			c-0.2-5.2,4.4-10.4,9.6-11.2c18.1-2.8,36.4-2.7,54.5,0.3c2.4,0.4,4.8,1.8,6.5,3.7c-1.8-2.5-4.6-4.5-7.6-5c-18.1-3-36.4-3-54.5-0.1
			c-5.2,0.9-9.8,6.1-9.6,11.3c0.3,6.2,1.3,12.3,3,18.5C83.8,151.8,85.2,154,87,155.7"/>
		<path clip-path="url(#SVGID_4_)" fill="#0E303F" d="M243.2,126.5c-1.6-3.6-5-6.6-8.7-7.2c-18.1-2.9-36.4-2.8-54.5,0.3
			c-3.6,0.7-6.9,3.4-8.5,6.8h-3.4c1.8-5.1,6.4-9.5,11.7-10.5c9.1-1.6,18.3-2.5,27.4-2.6c9.1-0.1,18.4,0.7,27.4,2.2
			c4.4,0.8,14.1,7.7,14,7.7c1,0.1,1.8,1.2,1.8,2.2v0.9H243.2z"/>
		<g opacity="0.1" clip-path="url(#SVGID_4_)">
			<g>
				<defs>
					<rect id="SVGID_11_" x="170.4" y="118.9" width="73.7" height="42.4"/>
				</defs>
				<clipPath id="SVGID_12_">
					<use xlink:href="#SVGID_11_"  overflow="visible"/>
				</clipPath>
				<path clip-path="url(#SVGID_12_)" fill="#FFFFFF" d="M173.4,150.8c1.5,5.1,6.8,9.7,11.1,9.9c15.1,0.7,30.3,0.7,45.4,0
					c4.3-0.3,9.6-4.8,11.1-10c1.7-6.2,2.7-12.3,3-18.5c0.2-5.2-4.4-10.4-9.6-11.2c-18.1-2.8-36.4-2.7-54.5,0.3
					c-5.2,0.9-9.8,6.1-9.6,11.3C170.7,138.6,171.7,144.6,173.4,150.8"/>
			</g>
		</g>
		<path clip-path="url(#SVGID_4_)" fill="#0E303F" d="M179.8,117.7c9.1-1.6,18.3-2.4,27.4-2.5c9.1-0.1,18.4,0.7,27.4,2.1
			c4.4,0.7,14.1,7.5,14,7.5c1,0.1,1.8,1.1,1.8,2.2v12.2c0,1-0.9,1.4-1.8,1.7c-1.2,0.4-2.7,2.7-3,4.2c-0.5,2.3-1,4.5-1.6,6.8
			c-1.9,6.3-8.3,12.1-14,12.4c-7.6,0.4-15.3,0.6-22.9,0.6c-7.6,0-15.3-0.2-22.9-0.6c-5.7-0.4-12.1-6.1-14-12.4
			c-1.8-6.3-2.8-12.6-3.1-18.9C166.9,126.2,172.6,119,179.8,117.7 M173.4,150.8c1.5,5.1,6.8,9.7,11.1,9.9c15.1,0.7,30.3,0.7,45.4,0
			c4.3-0.3,9.6-4.8,11.1-10c1.7-6.2,2.7-12.3,3-18.5c0.2-5.2-4.4-10.4-9.6-11.2c-18.1-2.8-36.4-2.7-54.5,0.3
			c-5.2,0.9-9.8,6.1-9.6,11.3C170.7,138.6,171.7,144.6,173.4,150.8"/>
		<path clip-path="url(#SVGID_4_)" fill="#2C5871" d="M238.2,155.7c1.3-1.5,2.3-3.2,2.8-5.1c1.7-6.2,2.7-12.4,3-18.5
			c0.2-5.2-4.4-10.4-9.6-11.2c-18.1-2.8-36.4-2.7-54.5,0.3c-2.5,0.4-4.8,1.8-6.5,3.7c1.8-2.5,4.6-4.5,7.6-5c18.1-3,36.4-3,54.5-0.1
			c5.2,0.9,9.8,6.1,9.6,11.3c-0.3,6.2-1.3,12.3-3,18.5C241.4,151.8,240,154,238.2,155.7"/>
		<path clip-path="url(#SVGID_4_)" fill="#0E303F" d="M163.9,123.8c-3.2,0.2-6.5-0.4-9.7-1.6c3,4.4,4.2,12,3.3,16.4
			c0.8-4.1,3.8-5.1,6.5-4.5V123.8z"/>
		<path clip-path="url(#SVGID_4_)" fill="#0E303F" d="M161.3,123.8c3.2,0.2,6.5-0.4,9.7-1.6c-3,4.4-4.2,12-3.3,16.4
			c-0.8-4.1-3.8-5.1-6.5-4.5V123.8z"/>
		<path clip-path="url(#SVGID_4_)" fill="#333333" d="M107.4,62.9c0,0,39.4,83.3,136.7,59.1c14-7,28.6-86.5-50.2-101.7
			C115,5,96.6,35.6,107.4,62.9"/>
		<path clip-path="url(#SVGID_4_)" fill="#333333" d="M75,139.2c0,0,13.4-59.1,48.3-82c-3.2-19.1,0-41,0-41S55.3,36.2,75,139.2"/>
		<path clip-path="url(#SVGID_4_)" fill="#1A1A1A" d="M193.9,20.3c-12.1-2.3-22.8-3.6-32.2-4v99.4c20.8,9.9,48,14.9,82.4,6.3
			C258.1,115,272.7,35.6,193.9,20.3"/>
	</g>
</g>
</svg>
