<?xml version="1.0" encoding="utf-8"?>
<!-- Generator: Adobe Illustrator 17.1.0, SVG Export Plug-In . SVG Version: 6.00 Build 0)  -->
<!DOCTYPE svg PUBLIC "-//W3C//DTD SVG 1.1//EN" "http://www.w3.org/Graphics/SVG/1.1/DTD/svg11.dtd">
<svg version="1.1" id="Layer_1" xmlns="http://www.w3.org/2000/svg" xmlns:xlink="http://www.w3.org/1999/xlink" x="0px" y="0px"
	 viewBox="0 0 276.8 512" enable-background="new 0 0 276.8 512" xml:space="preserve">
<g>
	<defs>
		<rect id="SVGID_1_" width="276.8" height="512"/>
	</defs>
	<clipPath id="SVGID_2_">
		<use xlink:href="#SVGID_1_"  overflow="visible"/>
	</clipPath>
	<path clip-path="url(#SVGID_2_)" fill="#1a181d" d="M266.4,0.1L200,0C125.4,0,77.2,49.5,77.2,126v58.1H10.4
		c-5.8,0-10.4,4.7-10.4,10.4v84.2c0,5.8,4.7,10.4,10.4,10.4h66.8v212.4c0,5.8,4.7,10.4,10.4,10.4h87.1c5.8,0,10.4-4.7,10.4-10.4
		V289.2h78.1c5.8,0,10.4-4.7,10.4-10.4l0-84.2c0-2.8-1.1-5.4-3.1-7.4c-2-2-4.6-3.1-7.4-3.1h-78.1v-49.2c0-23.7,5.6-35.7,36.5-35.7
		l44.7,0c5.8,0,10.4-4.7,10.4-10.4V10.5C276.8,4.8,272.1,0.1,266.4,0.1"/>
</g>
</svg>
