<?xml version="1.0" encoding="utf-8"?>
<!-- Generator: Adobe Illustrator 17.1.0, SVG Export Plug-In . SVG Version: 6.00 Build 0)  -->
<!DOCTYPE svg PUBLIC "-//W3C//DTD SVG 1.1//EN" "http://www.w3.org/Graphics/SVG/1.1/DTD/svg11.dtd">
<svg version="1.1" id="Layer_1" xmlns="http://www.w3.org/2000/svg" xmlns:xlink="http://www.w3.org/1999/xlink" x="0px" y="0px"
	 viewBox="0 0 512 292.1" enable-background="new 0 0 512 292.1" xml:space="preserve">
<g>
	<defs>
		<rect id="SVGID_1_" width="512" height="292.1"/>
	</defs>
	<clipPath id="SVGID_2_">
		<use xlink:href="#SVGID_1_"  overflow="visible"/>
	</clipPath>
	<path clip-path="url(#SVGID_2_)" fill="#1a181d" d="M509.3,263.8c-0.6-1.3-1.2-2.4-1.7-3.3c-8.9-16-25.9-35.6-50.9-58.9l-0.5-0.5
		l-0.3-0.3l-0.3-0.3h-0.3c-11.4-10.8-18.6-18.1-21.6-21.9c-5.5-7.1-6.8-14.3-3.7-21.6c2.1-5.5,10.1-17.1,24-34.9
		c7.3-9.4,13.1-17,17.3-22.7c30.7-40.9,44.1-67,40-78.4l-1.6-2.7c-1.1-1.6-3.8-3.1-8.3-4.4c-4.4-1.3-10.1-1.6-17.1-0.7l-76.8,0.5
		c-1.2-0.4-3-0.4-5.3,0.1c-2.3,0.5-3.5,0.8-3.5,0.8l-1.3,0.7l-1.1,0.8c-0.9,0.5-1.9,1.5-2.9,2.8c-1.1,1.3-2,2.9-2.7,4.7
		c-8.4,21.5-17.9,41.5-28.5,60c-6.6,11-12.6,20.6-18.1,28.7c-5.5,8.1-10.1,14-13.9,17.9c-3.7,3.8-7.1,6.9-10.1,9.2
		c-3,2.3-5.3,3.3-6.9,2.9c-1.6-0.4-3.1-0.7-4.5-1.1c-2.5-1.6-4.5-3.8-6-6.5c-1.5-2.8-2.5-6.2-3.1-10.4c-0.5-4.2-0.8-7.8-0.9-10.8
		c-0.1-3,0-7.3,0.1-12.8c0.2-5.5,0.3-9.2,0.3-11.2c0-6.8,0.1-14.1,0.4-22c0.3-7.9,0.5-14.2,0.7-18.8c0.2-4.6,0.3-9.5,0.3-14.7
		s-0.3-9.2-0.9-12.1c-0.6-2.9-1.6-5.8-2.8-8.5c-1.2-2.8-3.1-4.9-5.5-6.4c-2.4-1.5-5.4-2.7-8.9-3.6c-9.4-2.1-21.4-3.3-36-3.5
		c-33.1-0.4-54.3,1.8-63.7,6.4c-3.7,2-7.1,4.6-10.1,8c-3.2,3.9-3.6,6-1.3,6.4c10.7,1.6,18.2,5.4,22.7,11.5l1.6,3.2
		c1.2,2.3,2.5,6.4,3.7,12.3c1.2,5.9,2,12.3,2.4,19.5c0.9,13,0.9,24.1,0,33.3c-0.9,9.2-1.7,16.4-2.5,21.6c-0.8,5.2-2,9.3-3.6,12.5
		c-1.6,3.2-2.7,5.2-3.2,5.9c-0.5,0.7-1,1.2-1.3,1.3c-2.3,0.9-4.7,1.3-7.2,1.3c-2.5,0-5.5-1.2-9.1-3.7c-3.6-2.5-7.2-5.9-11.1-10.3
		c-3.8-4.4-8.1-10.4-12.9-18.3c-4.8-7.8-9.8-17.1-14.9-27.7l-4.3-7.7c-2.7-5-6.3-12.2-10.9-21.7c-4.6-9.5-8.7-18.7-12.3-27.6
		c-1.4-3.7-3.6-6.6-6.4-8.5l-1.3-0.8c-0.9-0.7-2.3-1.5-4.3-2.3c-2-0.8-4-1.4-6.1-1.7l-73,0.5c-7.5,0-12.5,1.7-15.2,5.1L0.8,20
		C0.3,20.9,0,22.3,0,24.3c0,2,0.5,4.4,1.6,7.2C12.3,56.5,23.9,80.7,36.4,104c12.5,23.3,23.4,42,32.7,56.2
		c9.2,14.2,18.7,27.6,28.3,40.3c9.6,12.6,16,20.7,19.1,24.3c3.1,3.6,5.6,6.2,7.3,8l6.7,6.4c4.3,4.3,10.5,9.4,18.8,15.3
		c8.3,6,17.4,11.8,27.5,17.6c10,5.8,21.7,10.5,35.1,14.1c13.3,3.6,26.3,5.1,38.9,4.4h30.7c6.2-0.5,10.9-2.5,14.1-5.9l1.1-1.3
		c0.7-1.1,1.4-2.7,2-4.9c0.6-2.2,0.9-4.7,0.9-7.3c-0.2-7.6,0.4-14.5,1.7-20.7c1.3-6.1,2.8-10.8,4.5-13.9c1.7-3.1,3.6-5.7,5.7-7.9
		c2.1-2.1,3.6-3.4,4.5-3.9c0.9-0.4,1.6-0.8,2.1-0.9c4.3-1.4,9.3,0,15.1,4.1c5.8,4.2,11.2,9.3,16.3,15.5c5.1,6.1,11.2,13,18.3,20.7
		c7.1,7.6,13.3,13.3,18.7,17.1l5.3,3.2c3.6,2.1,8.2,4.1,13.9,5.9c5.7,1.8,10.7,2.2,14.9,1.3l68.2-1.1c6.7,0,12-1.1,15.7-3.3
		c3.7-2.2,6-4.7,6.7-7.3c0.7-2.7,0.8-5.7,0.1-9.1C510.5,267.5,509.9,265.1,509.3,263.8"/>
</g>
</svg>
