<?xml version="1.0" encoding="utf-8"?>
<!-- Generator: Adobe Illustrator 17.1.0, SVG Export Plug-In . SVG Version: 6.00 Build 0)  -->
<!DOCTYPE svg PUBLIC "-//W3C//DTD SVG 1.1//EN" "http://www.w3.org/Graphics/SVG/1.1/DTD/svg11.dtd">
<svg version="1.1" id="Layer_1" xmlns="http://www.w3.org/2000/svg" xmlns:xlink="http://www.w3.org/1999/xlink" x="0px" y="0px"
	 viewBox="0 0 512 467.5" enable-background="new 0 0 512 467.5" xml:space="preserve">
<g>
	<defs>
		<rect id="SVGID_1_" width="512" height="467.5"/>
	</defs>
	<clipPath id="SVGID_2_">
		<use xlink:href="#SVGID_1_"  overflow="visible"/>
	</clipPath>
	<path clip-path="url(#SVGID_2_)" d="M16.9,228.7c5.5,0,10-4.5,10-10c0-60.4,49.2-109.6,109.6-109.6h239.1v89.3L512,99.3L375.5,0
		v89.3H136.5C65.1,89.3,7,147.4,7,218.8C7,224.3,11.4,228.7,16.9,228.7"/>
	<path clip-path="url(#SVGID_2_)" d="M495.1,238.7c-5.5,0-10,4.5-10,10c0,60.4-49.2,109.6-109.6,109.6H136.5v-89.3L0,368.2
		l136.5,99.3v-89.3h239.1c71.4,0,129.5-58.1,129.5-129.5C505,243.2,500.6,238.7,495.1,238.7"/>
</g>
</svg>
