<?xml version="1.0" encoding="utf-8"?>
<!-- Generator: Adobe Illustrator 17.1.0, SVG Export Plug-In . SVG Version: 6.00 Build 0)  -->
<!DOCTYPE svg PUBLIC "-//W3C//DTD SVG 1.1 Tiny//EN" "http://www.w3.org/Graphics/SVG/1.1/DTD/svg11-tiny.dtd">
<svg version="1.1" baseProfile="tiny" id="Capa_1" xmlns="http://www.w3.org/2000/svg" xmlns:xlink="http://www.w3.org/1999/xlink"
	 x="0px" y="0px" viewBox="0 128.2 612 535.6" xml:space="preserve">
<g>
	<g id="Heart_1_">
		<g>
			<path d="M449.4,128.2c-62.1,0-116,34.9-143.4,86.2c-27.4-51.2-81.3-86.1-143.4-86.1C72.8,128.2,0,201,0,290.8
				c0,27.5,6.9,53.4,19,76.1c0.5,3.4,5,10.4,12.8,20.1c5,6.8,10.4,13.2,16.3,19.1c73,82.3,257.9,257.7,257.9,257.7
				s184.9-175.3,257.9-257.6c5.9-5.9,11.3-12.4,16.3-19.1c7.8-9.7,12.3-16.7,12.8-20.1c12.1-22.7,19-48.6,19-76.1
				C612,201,539.2,128.2,449.4,128.2z M572.9,305.2c-0.2,1.4-0.4,2.8-0.6,4.2c-0.5,3.4-1.1,6.7-1.9,10c-0.3,1.4-0.7,2.9-1.1,4.3
				c-0.9,3.3-2,6.6-3.2,9.9c-0.4,1.1-0.8,2.2-1.2,3.3c-1.7,4.3-3.6,8.4-5.7,12.5c-1.6,2.9-3.5,5.7-5.3,8.5c0.1,0.1,0.2,0.3,0.2,0.3
				c8.1,9.3-235.8,245.9-248.1,255c-12.2-9-256.1-245.6-248-255c0-0.1,0.2-0.3,0.2-0.3c-1.8-2.8-3.7-5.5-5.3-8.5
				c-2.1-4-4-8.2-5.7-12.4c-0.4-1.1-0.8-2.2-1.2-3.3c-1.2-3.2-2.3-6.5-3.2-9.9c-0.4-1.4-0.8-2.8-1.1-4.3c-0.8-3.3-1.4-6.6-1.9-10
				c-0.2-1.4-0.5-2.8-0.6-4.2c-0.5-4.7-0.9-9.5-0.9-14.4c0-68.7,55.7-124.3,124.3-124.3c5.6,0,11.1,0.5,16.5,1.2
				c1.4,0.2,2.7,0.4,4.1,0.6c4.9,0.8,9.8,1.9,14.5,3.3c0.4,0.1,0.8,0.2,1.2,0.3c5.2,1.6,10.2,3.6,15.1,5.8c0.9,0.4,1.8,0.9,2.7,1.3
				c4.4,2.1,8.7,4.5,12.8,7.1l0.1-0.5c0,0,5.5,4.1,13.4,10.6c0.3,0.3,0.7,0.5,1.1,0.8c0.2,0.2,0.4,0.4,0.6,0.6
				c16.6,13.8,43.1,37.8,61.4,64.5c18.2-26.7,44.8-50.8,61.4-64.5c0.2-0.2,0.4-0.4,0.6-0.6c0.3-0.3,0.7-0.5,1.1-0.8
				c7.8-6.6,13.3-10.7,13.3-10.7l0.1,0.5c4.1-2.6,8.4-5,12.8-7.1c0.9-0.4,1.8-0.9,2.7-1.3c4.9-2.2,9.9-4.2,15.1-5.8
				c0.4-0.1,0.8-0.2,1.2-0.3c4.7-1.4,9.6-2.4,14.5-3.3c1.4-0.2,2.7-0.4,4.1-0.6c5.4-0.7,10.9-1.2,16.5-1.2
				c68.7,0,124.3,55.7,124.3,124.3C573.8,295.7,573.4,300.5,572.9,305.2z"/>
		</g>
	</g>
</g>
<path d="M64,193c16.1-14.9,41-37.9,81-46c9.1-1.8,61.6-12.5,103,17c38.8,27.7,35.8,67.9,59,70c22.5,2,27.2-35.9,73-63
	c41.1-24.3,82.9-20.9,92-20c13.2,1.3,61.7,7.1,96,49c32.4,39.5,30.7,85.1,30,96c-3.4,50.4-34.6,80.9-80,131
	C391.5,566.5,337.2,656.5,307,642c-9.9-4.8-6.9-15.9-27-39s-41.7-33.4-52-39c-70.2-38.3-61.4-103.3-152-174
	c-29.4-23-48.7-30.4-59-57c-14.6-37.6,2.5-77.9,6-86C34.3,220.4,51.2,204.8,64,193z"/>
</svg>
