<?xml version="1.0" encoding="utf-8"?>
<!-- Generator: Adobe Illustrator 17.1.0, SVG Export Plug-In . SVG Version: 6.00 Build 0)  -->
<!DOCTYPE svg PUBLIC "-//W3C//DTD SVG 1.1//EN" "http://www.w3.org/Graphics/SVG/1.1/DTD/svg11.dtd">
<svg version="1.1" id="Layer_1" xmlns="http://www.w3.org/2000/svg" xmlns:xlink="http://www.w3.org/1999/xlink" x="0px" y="0px"
	 viewBox="0 0 612 535.5" enable-background="new 0 0 612 535.5" xml:space="preserve">
<g>
	<defs>
		<rect id="SVGID_1_" width="612" height="535.5"/>
	</defs>
	<clipPath id="SVGID_2_">
		<use xlink:href="#SVGID_1_"  overflow="visible"/>
	</clipPath>
	<path clip-path="url(#SVGID_2_)" d="M449.4,0C387.3,0,333.4,34.9,306,86.1C278.6,34.9,224.7,0,162.6,0C72.8,0,0,72.8,0,162.6
		c0,27.5,6.9,53.4,19,76.1c0.5,3.4,5,10.4,12.8,20.1c5,6.8,10.4,13.2,16.3,19.1C121.1,360.2,306,535.5,306,535.5
		s184.9-175.3,257.9-257.6c5.9-5.9,11.3-12.4,16.3-19.1c7.8-9.7,12.3-16.7,12.8-20.1c12.1-22.7,19-48.6,19-76.1
		C612,72.8,539.2,0,449.4,0 M572.9,177c-0.2,1.4-0.4,2.8-0.6,4.2c-0.5,3.4-1.1,6.7-1.9,10c-0.3,1.4-0.7,2.9-1.1,4.3
		c-0.9,3.3-2,6.6-3.2,9.9c-0.4,1.1-0.8,2.2-1.2,3.3c-1.7,4.3-3.6,8.4-5.7,12.5c-1.6,2.9-3.5,5.7-5.3,8.5c0.1,0.1,0.2,0.3,0.2,0.3
		c8.1,9.3-235.8,245.9-248.1,255c-12.2-9-256.1-245.6-248-255c0-0.1,0.2-0.3,0.2-0.3c-1.8-2.8-3.7-5.5-5.3-8.5
		c-2.1-4-4-8.2-5.7-12.5c-0.4-1.1-0.8-2.2-1.2-3.3c-1.2-3.2-2.3-6.5-3.2-9.9c-0.4-1.4-0.8-2.8-1.1-4.3c-0.8-3.3-1.4-6.6-1.9-10
		c-0.2-1.4-0.5-2.8-0.6-4.2c-0.5-4.7-0.9-9.5-0.9-14.4c0-68.7,55.7-124.3,124.3-124.3c5.6,0,11.1,0.5,16.5,1.2
		c1.4,0.2,2.7,0.4,4.1,0.6c4.9,0.8,9.8,1.9,14.5,3.3c0.4,0.1,0.8,0.2,1.2,0.3c5.2,1.6,10.2,3.6,15.1,5.8c0.9,0.4,1.8,0.9,2.7,1.3
		c4.4,2.1,8.7,4.5,12.8,7.1l0.1-0.5c0,0,5.5,4.1,13.4,10.6c0.3,0.3,0.7,0.5,1.1,0.8c0.2,0.2,0.4,0.4,0.6,0.6
		c16.6,13.8,43.1,37.8,61.4,64.5c18.2-26.7,44.8-50.8,61.4-64.5c0.2-0.2,0.4-0.4,0.6-0.6c0.3-0.3,0.7-0.5,1.1-0.8
		c7.9-6.5,13.4-10.6,13.4-10.6l0.1,0.5c4.1-2.6,8.4-5,12.8-7.1c0.9-0.4,1.8-0.9,2.7-1.3c4.9-2.2,9.9-4.2,15.1-5.8
		c0.4-0.1,0.8-0.2,1.2-0.3c4.7-1.4,9.6-2.4,14.5-3.3c1.4-0.2,2.7-0.4,4.1-0.6c5.4-0.7,10.9-1.2,16.5-1.2
		c68.7,0,124.3,55.7,124.3,124.3C573.7,167.4,573.4,172.2,572.9,177"/>
</g>
</svg>
