<?xml version="1.0" encoding="utf-8"?>
<!-- Generator: Adobe Illustrator 17.1.0, SVG Export Plug-In . SVG Version: 6.00 Build 0)  -->
<!DOCTYPE svg PUBLIC "-//W3C//DTD SVG 1.1 Tiny//EN" "http://www.w3.org/Graphics/SVG/1.1/DTD/svg11-tiny.dtd">
<svg version="1.1" baseProfile="tiny" id="Capa_1" xmlns="http://www.w3.org/2000/svg" xmlns:xlink="http://www.w3.org/1999/xlink"
	 x="0px" y="0px" viewBox="3.1 3.1 43.4 43.4" xml:space="preserve">
<path fill="#ffffff" d="M24.8,3.1c-12,0-21.7,9.7-21.7,21.7c0,12,9.7,21.7,21.7,21.7c12,0,21.7-9.7,21.7-21.7C46.5,12.8,36.8,3.1,24.8,3.1z
	 M39.1,38.5c0-0.6,0-1,0-1c0-3.4-3.9-4.6-6-5.5c-0.8-0.3-2.2-1-3.7-1.7c-0.5-0.2-0.9-0.9-1-1.4l-0.2-1.6c1.1-1,2.1-2.5,2.3-4.1h0.3
	c0.4,0,0.8-0.3,0.8-0.7l0.4-2.5c0.1-0.5-0.4-0.8-0.8-0.8c0-0.1,0-0.1,0-0.1c0.1-0.3,0.1-0.6,0.1-0.9c0-0.2,0-0.5,0.1-0.7
	c0-1.2-0.2-2.2-0.5-2.7c-0.3-0.8-0.8-1.6-1.5-2.2c-1.9-1.8-4.2-2.6-6.1-1.1c-1.3-0.2-2.9,0.4-4,1.7c-0.6,0.7-1,1.5-1.2,2.3
	c-0.1,0.5-0.2,1.1-0.3,1.8c0,0.7,0,1.4,0.2,1.9c-0.4,0-0.8,0.3-0.8,0.8l0.4,2.5c0.1,0.4,0.4,0.7,0.8,0.7h0.2
	c0.4,1.8,1.3,3.2,2.3,4.2L21,28.9c-0.1,0.5-0.5,1.2-1,1.4c-1.4,0.7-2.8,1.4-3.7,1.7c-2,0.8-6,2.1-6,5.5v0.8C7,34.8,5,30,5,24.8
	C5,13.9,13.9,5,24.8,5c10.9,0,19.8,8.9,19.8,19.8C44.7,30.1,42.5,34.9,39.1,38.5z"/>
<circle display="none" cx="25.2" cy="24.8" r="22.5"/>
</svg>
