<?xml version="1.0" encoding="utf-8"?>
<!-- Generator: Adobe Illustrator 17.1.0, SVG Export Plug-In . SVG Version: 6.00 Build 0)  -->
<!DOCTYPE svg PUBLIC "-//W3C//DTD SVG 1.1//EN" "http://www.w3.org/Graphics/SVG/1.1/DTD/svg11.dtd">
<svg version="1.1" id="Layer_1" xmlns="http://www.w3.org/2000/svg" xmlns:xlink="http://www.w3.org/1999/xlink" x="0px" y="0px"
	 viewBox="0 0 512 512" enable-background="new 0 0 512 512" xml:space="preserve">
<g>
	<defs>
		<rect id="SVGID_1_" width="512" height="512"/>
	</defs>
	<clipPath id="SVGID_2_">
		<use xlink:href="#SVGID_1_"  overflow="visible"/>
	</clipPath>
	<path clip-path="url(#SVGID_2_)" fill="#FFFFFF" d="M499.5,439L388.2,327.7c-0.6-0.6-1.3-1-1.9-1.6C408.2,293,421,253.2,421,210.5
		C421,94.2,326.8,0,210.5,0S0,94.2,0,210.5C0,326.8,94.2,421,210.5,421c42.7,0,82.5-12.8,115.7-34.7c0.5,0.6,1,1.3,1.6,1.9
		L439,499.5c16.7,16.7,43.8,16.7,60.5,0C516.2,482.8,516.2,455.7,499.5,439 M210.5,348C134.5,348,73,286.5,73,210.5
		C73,134.5,134.5,73,210.5,73c76,0,137.5,61.6,137.5,137.5S286.4,348,210.5,348"/>
</g>
</svg>
