<?xml version="1.0" encoding="utf-8"?>
<!-- Generator: Adobe Illustrator 17.1.0, SVG Export Plug-In . SVG Version: 6.00 Build 0)  -->
<!DOCTYPE svg PUBLIC "-//W3C//DTD SVG 1.1//EN" "http://www.w3.org/Graphics/SVG/1.1/DTD/svg11.dtd">
<svg version="1.1" id="Layer_1" xmlns="http://www.w3.org/2000/svg" xmlns:xlink="http://www.w3.org/1999/xlink" x="0px" y="0px"
	 viewBox="0 0 410.2 408.8" enable-background="new 0 0 410.2 408.8" xml:space="preserve">
<g>
	<defs>
		<rect id="SVGID_1_" width="410.2" height="408.8"/>
	</defs>
	<clipPath id="SVGID_2_">
		<use xlink:href="#SVGID_1_"  overflow="visible"/>
	</clipPath>
	<path clip-path="url(#SVGID_2_)" d="M401.6,363.4L294.5,256.3c19.1-26.8,30.6-59.3,30.6-93.7C325.1,72.7,252.4,0,162.6,0
		S0,72.7,0,162.6s72.7,162.6,162.6,162.6c34.4,0,66.9-11.5,93.7-30.6l107.1,107.1c9.6,9.6,26.8,9.6,38.3,0
		C413.1,390.2,413.1,374.8,401.6,363.4 M162.6,286.9c-68.8,0-124.3-55.5-124.3-124.3c0-68.8,55.5-124.3,124.3-124.3
		s124.3,55.5,124.3,124.3C286.9,231.4,231.4,286.9,162.6,286.9"/>
</g>
</svg>
