<?xml version="1.0" encoding="utf-8"?>
<!-- Generator: Adobe Illustrator 17.1.0, SVG Export Plug-In . SVG Version: 6.00 Build 0)  -->
<!DOCTYPE svg PUBLIC "-//W3C//DTD SVG 1.1//EN" "http://www.w3.org/Graphics/SVG/1.1/DTD/svg11.dtd">
<svg version="1.1" id="Layer_1" xmlns="http://www.w3.org/2000/svg" xmlns:xlink="http://www.w3.org/1999/xlink" x="0px" y="0px"
	 viewBox="0 0 53.1 35.8" enable-background="new 0 0 53.1 35.8" xml:space="preserve">
<g>
	<g>
		<g display="none">
			
				<text transform="matrix(1 0 0 1 0.3481 0.8535)" display="inline" fill="#FFFFFF" font-family="'GothamPro-Bold'" font-size="30.5378">+</text>
		</g>
		<g display="none">
			
				<text transform="matrix(1 0 0 1 1.0288 -25.0684)" display="inline" fill="#5D5D5D" font-family="'GothamPro-Bold'" font-size="30.5378">2%</text>
		</g>
		<g opacity="0.6">
			<g>
				<g>
					<path fill="#5D5D5D" d="M13.2,22.9c-6.3,0-12.9-1.8-12.9-4.8c0-3,6.5-4.6,12.9-4.6s12.9,1.6,12.9,4.6
						C26.1,21.1,19.5,22.9,13.2,22.9z M13.2,15.2c-3.2,0-6.1,0.4-8.3,1.1c-2.4,0.7-3,1.5-3,1.9c0,1.1,4.3,3.2,11.3,3.2
						c7,0,11.3-2.1,11.3-3.2c0-0.3-0.6-1.1-3-1.9C19.3,15.6,16.4,15.2,13.2,15.2z"/>
				</g>
				<g>
					<path fill="#5D5D5D" d="M13.2,29c-6.3,0-12.9-1.8-12.9-4.8h1.6c0,1.1,4.3,3.2,11.3,3.2c7,0,11.3-2.1,11.3-3.2h1.6
						C26.1,27.2,19.5,29,13.2,29z"/>
				</g>
				<g>
					<path fill="#5D5D5D" d="M13.2,35.4c-3.2,0-6.4-0.5-8.8-1.4c-2.6-1-4.1-2.2-4.1-3.6h1.6c0,1.2,4.4,3.4,11.3,3.4
						c6.9,0,11.3-2.2,11.3-3.4h1.6c0,1.4-1.4,2.7-4.1,3.6C19.6,34.9,16.5,35.4,13.2,35.4z"/>
				</g>
				<g>
					<rect x="24.5" y="18.3" fill="#5D5D5D" width="1.6" height="12.2"/>
				</g>
				<g>
					<rect x="0.3" y="18.3" fill="#5D5D5D" width="1.6" height="12.2"/>
				</g>
				<g>
					<path fill="#5D5D5D" d="M39.8,9.5c-6.4,0-12.9-1.8-12.9-4.8c0-3,6.5-4.6,12.9-4.6c6.4,0,12.9,1.6,12.9,4.6
						C52.8,7.7,46.2,9.5,39.8,9.5z M39.8,1.7c-3.2,0-6.1,0.4-8.4,1.1c-2.4,0.7-3,1.5-3,1.9c0,1.1,4.3,3.2,11.4,3.2
						s11.4-2.1,11.4-3.2c0-0.3-0.6-1.1-3-1.9C46,2.1,43,1.7,39.8,1.7z"/>
				</g>
				<g>
					<path fill="#5D5D5D" d="M39.8,15.9c-6.4,0-12.9-1.8-12.9-4.8h1.5c0,1.1,4.3,3.2,11.4,3.2c7.1,0,11.4-2.1,11.4-3.2h1.6
						C52.8,14.1,46.2,15.9,39.8,15.9z"/>
				</g>
				<g>
					<path fill="#5D5D5D" d="M39.8,22.3c-6.4,0-12.9-1.8-12.9-4.8l1.5,0c0,1.1,4.3,3.2,11.4,3.2c7.1,0,11.4-2.1,11.4-3.2h1.6
						C52.8,20.5,46.2,22.3,39.8,22.3z"/>
				</g>
				<g>
					<path fill="#5D5D5D" d="M39.8,28.7c-6.4,0-12.9-1.8-12.9-4.8h1.5c0,1.1,4.3,3.2,11.4,3.2c7.1,0,11.4-2.1,11.4-3.2h1.6
						C52.8,27,46.2,28.7,39.8,28.7z"/>
				</g>
				<g>
					<path fill="#5D5D5D" d="M39.8,35.4c-3.3,0-6.4-0.5-8.8-1.4c-2.6-1-4.1-2.2-4.1-3.6h1.6c0,1.2,4.4,3.4,11.4,3.4
						c6.9,0,11.4-2.2,11.4-3.4h1.6c0,1.4-1.5,2.7-4.1,3.6C46.2,34.9,43.1,35.4,39.8,35.4z"/>
				</g>
				<g>
					<rect x="51.2" y="4.7" fill="#5D5D5D" width="1.6" height="26"/>
				</g>
				<g>
					<rect x="26.9" y="4.7" fill="#5D5D5D" width="1.6" height="25.9"/>
				</g>
			</g>
		</g>
	</g>
	<rect x="-16.4" y="54.3" fill="none" width="86" height="102.8"/>
	<text transform="matrix(1 0 0 1 -16.4463 58.2017)" display="none"><tspan x="0" y="0" display="inline" fill="#5D5D5D" font-family="'GothamPro'" font-size="5.5">От</tspan><tspan x="6" y="0" display="inline" fill="#5D5D5D" font-family="'GothamPro'" font-size="5.5" letter-spacing="6"> </tspan><tspan x="13.5" y="0" display="inline" fill="#5D5D5D" font-family="'GothamPro'" font-size="5.5">суммы</tspan><tspan x="29.3" y="0" display="inline" fill="#5D5D5D" font-family="'GothamPro'" font-size="5.5" letter-spacing="6"> </tspan><tspan x="36.8" y="0" display="inline" fill="#5D5D5D" font-family="'GothamPro'" font-size="5.5">покупки</tspan><tspan x="56.7" y="0" display="inline" fill="#5D5D5D" font-family="'GothamPro'" font-size="5.5" letter-spacing="6"> </tspan><tspan x="64.2" y="0" display="inline" fill="#5D5D5D" font-family="'GothamPro'" font-size="5.5">вернется </tspan><tspan x="0" y="9" display="inline" fill="#5D5D5D" font-family="'GothamPro'" font-size="5.5">в</tspan><tspan x="2.8" y="9" display="inline" fill="#5D5D5D" font-family="'GothamPro'" font-size="5.5" letter-spacing="5"> </tspan><tspan x="9.4" y="9" display="inline" fill="#5D5D5D" font-family="'GothamPro'" font-size="5.5">виде</tspan><tspan x="20.8" y="9" display="inline" fill="#5D5D5D" font-family="'GothamPro'" font-size="5.5" letter-spacing="5"> </tspan><tspan x="27.4" y="9" display="inline" fill="#5D5D5D" font-family="'GothamPro'" font-size="5.5">бонусов</tspan><tspan x="47.2" y="9" display="inline" fill="#5D5D5D" font-family="'GothamPro'" font-size="5.5" letter-spacing="5"> </tspan><tspan x="53.8" y="9" display="inline" fill="#5D5D5D" font-family="'GothamPro'" font-size="5.5">при</tspan><tspan x="62.9" y="9" display="inline" fill="#5D5D5D" font-family="'GothamPro'" font-size="5.5" letter-spacing="5"> </tspan><tspan x="69.6" y="9" display="inline" fill="#5D5D5D" font-family="'GothamPro'" font-size="5.5">оплате </tspan><tspan x="0" y="18" display="inline" fill="#5D5D5D" font-family="'GothamPro'" font-size="5.5">с</tspan><tspan x="2.5" y="18" display="inline" fill="#5D5D5D" font-family="'GothamPro'" font-size="5.5" letter-spacing="2"> </tspan><tspan x="6.1" y="18" display="inline" fill="#5D5D5D" font-family="'GothamPro'" font-size="5.5">помощью</tspan><tspan x="29.4" y="18" display="inline" fill="#5D5D5D" font-family="'GothamPro'" font-size="5.5" letter-spacing="2"> </tspan><tspan x="33" y="18" display="inline" fill="#5D5D5D" font-family="'GothamPro'" font-size="5.5">карты</tspan><tspan x="47.3" y="18" display="inline" fill="#5D5D5D" font-family="'GothamPro'" font-size="5.5" letter-spacing="2"> </tspan><tspan x="50.9" y="18" display="inline" fill="#5D5D5D" font-family="'GothamPro'" font-size="5.5">AURACARD</tspan><tspan x="77.4" y="18" display="inline" fill="#5D5D5D" font-family="'GothamPro'" font-size="5.5" letter-spacing="2"> </tspan><tspan x="81" y="18" display="inline" fill="#5D5D5D" font-family="'GothamPro'" font-size="5.5">за </tspan><tspan x="0" y="27" display="inline" fill="#5D5D5D" font-family="'GothamPro'" font-size="5.5">счет</tspan><tspan x="10.3" y="27" display="inline" fill="#5D5D5D" font-family="'GothamPro'" font-size="5.5" letter-spacing="6"> </tspan><tspan x="18.1" y="27" display="inline" fill="#5D5D5D" font-family="'GothamPro'" font-size="5.5">собственных</tspan><tspan x="48.9" y="27" display="inline" fill="#5D5D5D" font-family="'GothamPro'" font-size="5.5" letter-spacing="6"> </tspan><tspan x="56.7" y="27" display="inline" fill="#5D5D5D" font-family="'GothamPro'" font-size="5.5">средств</tspan><tspan x="75.5" y="27" display="inline" fill="#5D5D5D" font-family="'GothamPro'" font-size="5.5" letter-spacing="6"> </tspan><tspan x="83.2" y="27" display="inline" fill="#5D5D5D" font-family="'GothamPro'" font-size="5.5">в </tspan><tspan x="0" y="36" display="inline" fill="#5D5D5D" font-family="'GothamPro'" font-size="5.5">торговых</tspan><tspan x="22.5" y="36" display="inline" fill="#5D5D5D" font-family="'GothamPro'" font-size="5.5" letter-spacing="8"> </tspan><tspan x="32.5" y="36" display="inline" fill="#5D5D5D" font-family="'GothamPro'" font-size="5.5">предприятиях</tspan><tspan x="66.7" y="36" display="inline" fill="#5D5D5D" font-family="'GothamPro'" font-size="5.5" letter-spacing="8"> </tspan><tspan x="76.8" y="36" display="inline" fill="#5D5D5D" font-family="'GothamPro'" font-size="5.5">ТРЦ </tspan><tspan x="0" y="45" display="inline" fill="#5D5D5D" font-family="'GothamPro'" font-size="5.5">«АУРА»,</tspan><tspan x="18.3" y="45" display="inline" fill="#5D5D5D" font-family="'GothamPro'" font-size="5.5" letter-spacing="8"> </tspan><tspan x="27.8" y="45" display="inline" fill="#5D5D5D" font-family="'GothamPro'" font-size="5.5">кроме</tspan><tspan x="42.9" y="45" display="inline" fill="#5D5D5D" font-family="'GothamPro'" font-size="5.5" letter-spacing="8"> </tspan><tspan x="52.4" y="45" display="inline" fill="#5D5D5D" font-family="'GothamPro'" font-size="5.5">гипермаркета </tspan><tspan x="0" y="54" display="inline" fill="#5D5D5D" font-family="'GothamPro'" font-size="5.5">«Окей»</tspan></text>
</g>
</svg>
