<?xml version="1.0" encoding="utf-8"?>
<!-- Generator: Adobe Illustrator 17.1.0, SVG Export Plug-In . SVG Version: 6.00 Build 0)  -->
<!DOCTYPE svg PUBLIC "-//W3C//DTD SVG 1.1//EN" "http://www.w3.org/Graphics/SVG/1.1/DTD/svg11.dtd">
<svg version="1.1" id="Layer_1" xmlns="http://www.w3.org/2000/svg" xmlns:xlink="http://www.w3.org/1999/xlink" x="0px" y="0px"
	 viewBox="0 0 512 388.9" enable-background="new 0 0 512 388.9" xml:space="preserve">
<g>
	<defs>
		<rect id="SVGID_1_" width="512" height="388.9"/>
	</defs>
	<clipPath id="SVGID_2_">
		<use xlink:href="#SVGID_1_"  overflow="visible"/>
	</clipPath>
	<path clip-path="url(#SVGID_2_)" fill="#FFFFFF" d="M451.2,0H60.8C27.3,0,0,26.2,0,58.4v272.2c0,32.2,27.3,58.4,60.8,58.4h390.5
		c33.5,0,60.8-26.2,60.8-58.4V58.4C512,26.2,484.7,0,451.2,0 M451.2,337.4H60.8c-4.9,0-9.2-3.2-9.2-6.8V94.3l176.6,149.1
		c3.6,3.1,8.2,4.7,13,4.7l29.8,0c4.7,0,9.3-1.7,13-4.7L460.5,94.3v236.2C460.5,334.2,456.2,337.4,451.2,337.4 M256,197L84.2,51.5
		h343.5L256,197z"/>
</g>
</svg>
