<?xml version="1.0" encoding="utf-8"?>
<!-- Generator: Adobe Illustrator 17.1.0, SVG Export Plug-In . SVG Version: 6.00 Build 0)  -->
<!DOCTYPE svg PUBLIC "-//W3C//DTD SVG 1.1//EN" "http://www.w3.org/Graphics/SVG/1.1/DTD/svg11.dtd">
<svg version="1.1" id="Capa_1" xmlns="http://www.w3.org/2000/svg" xmlns:xlink="http://www.w3.org/1999/xlink" x="0px" y="0px"
	 viewBox="29 73.6 464 364.9" enable-background="new 29 73.6 464 364.9" xml:space="preserve">
<g>
	<path fill="#D33134" stroke="#D33134" stroke-width="2" stroke-miterlimit="10" d="M453.4,73.6H68.6C46.9,73.6,29,91.5,29,113.2
		v285.7c0,21.7,17.9,39.6,39.6,39.6h384.8c21.7,0,39.6-17.9,39.6-39.6V113.2C493.9,91.5,476,73.6,453.4,73.6z M324.3,266.8
		l146-127.3v255.5L324.3,266.8z M69.5,97.1h383.8c7.5,0,14.1,5.7,16,12.3L269.7,279.1c-8.5,6.6-22.6,6.6-30.2,0L52.6,111.3
		C54.5,103.7,61.1,97.1,69.5,97.1z M52.6,395.1V141.4l134.1,126.3L52.6,395.1z M69.5,416.8c-1.9,0-3.8,0-4.7-0.9l141.7-132.9
		l18.9,15.1c8.5,6.6,18.9,9.4,29.2,9.4s21.7-2.8,29.2-9.4l20.7-16l153.5,133.9c-1.9,0.9-2.8,0.9-4.7,0.9L69.5,416.8L69.5,416.8z"/>
</g>
</svg>
