<?xml version="1.0" encoding="utf-8"?>
<!-- Generator: Adobe Illustrator 17.1.0, SVG Export Plug-In . SVG Version: 6.00 Build 0)  -->
<!DOCTYPE svg PUBLIC "-//W3C//DTD SVG 1.1//EN" "http://www.w3.org/Graphics/SVG/1.1/DTD/svg11.dtd">
<svg version="1.1" id="Layer_1" xmlns="http://www.w3.org/2000/svg" xmlns:xlink="http://www.w3.org/1999/xlink" x="0px" y="0px"
	 viewBox="0 0 458.8 392" enable-background="new 0 0 458.8 392" xml:space="preserve">
<g>
	<defs>
		<rect id="SVGID_1_" width="458.8" height="392"/>
	</defs>
	<clipPath id="SVGID_2_">
		<use xlink:href="#SVGID_1_"  overflow="visible"/>
	</clipPath>
	<path clip-path="url(#SVGID_2_)" fill="#FFFFFF" d="M333.9,259l-35.4-35.4c-7-7-18.7-6.8-26,0.5L254.7,242c-1.1-0.6-2.3-1.3-3.5-2
		c-11.3-6.2-26.7-14.8-42.9-31c-16.3-16.3-24.8-31.7-31.1-42.9c-0.7-1.2-1.3-2.3-1.9-3.4l12-11.9l5.9-5.9c7.3-7.3,7.5-19,0.5-26
		l-35.4-35.4c-7-7-18.7-6.8-26,0.5l-10,10l0.3,0.3c-3.3,4.3-6.1,9.2-8.2,14.5c-1.9,5-3.1,9.9-3.7,14.7c-4.7,38.7,13,74.1,61,122.1
		c66.4,66.4,119.8,61.3,122.2,61.1c5-0.6,9.8-1.8,14.7-3.7c5.3-2.1,10.2-4.8,14.4-8.2l0.2,0.2l10.1-9.9
		C340.7,277.8,340.9,266.1,333.9,259"/>
	<path clip-path="url(#SVGID_2_)" fill="none" stroke="#FFFFFF" stroke-width="50" stroke-miterlimit="20" d="M413.8,367H45
		c-11,0-20-9-20-20V45c0-11,9-20,20-20h368.8c11,0,20,9,20,20v302C433.8,358,424.8,367,413.8,367z"/>
</g>
</svg>
