<?xml version="1.0" encoding="utf-8"?>
<!-- Generator: Adobe Illustrator 17.1.0, SVG Export Plug-In . SVG Version: 6.00 Build 0)  -->
<!DOCTYPE svg PUBLIC "-//W3C//DTD SVG 1.1//EN" "http://www.w3.org/Graphics/SVG/1.1/DTD/svg11.dtd">
<svg version="1.1" id="Layer_1" xmlns="http://www.w3.org/2000/svg" xmlns:xlink="http://www.w3.org/1999/xlink" x="0px" y="0px"
	 viewBox="0 0 53.1 35.8" enable-background="new 0 0 53.1 35.8" xml:space="preserve">
<g>
	<g>
		<g display="none">
			
				<text transform="matrix(1 0 0 1 4.1245 1.166)" display="inline" fill="#FFFFFF" font-family="'GothamPro-Bold'" font-size="30.5378">+</text>
		</g>
		<g display="none">
			
				<text transform="matrix(1 0 0 1 4.124 -24.7559)" display="inline" fill="#5D5D5D" font-family="'GothamPro-Bold'" font-size="30.5378">5%</text>
		</g>
		<g opacity="0.6">
			<g>
				<g>
					<path fill="#5D5D5D" d="M13.3,16.9c-6.3,0-12.9-1.8-12.9-4.8c0-3,6.5-4.6,12.9-4.6c6.4,0,12.9,1.6,12.9,4.6
						C26.1,15.1,19.6,16.9,13.3,16.9z M13.3,9.1c-3.2,0-6.1,0.4-8.3,1.1c-2.4,0.7-3,1.5-3,1.9c0,1.1,4.3,3.2,11.3,3.2
						c7,0,11.3-2.1,11.3-3.2c0-0.3-0.6-1.1-3-1.9C19.4,9.5,16.4,9.1,13.3,9.1z"/>
				</g>
				<g>
					<path fill="#5D5D5D" d="M13.3,22.9c-6.3,0-12.9-1.8-12.9-4.8H2c0,1.1,4.3,3.2,11.3,3.2c7,0,11.3-2.1,11.3-3.2h1.6
						C26.1,21.1,19.6,22.9,13.3,22.9z"/>
				</g>
				<g>
					<path fill="#5D5D5D" d="M13.3,29.3c-6.3,0-12.9-1.8-12.9-4.8H2c0,1.1,4.3,3.2,11.3,3.2c7,0,11.3-2.1,11.3-3.2h1.6
						C26.1,27.5,19.6,29.3,13.3,29.3z"/>
				</g>
				<g>
					<path fill="#5D5D5D" d="M13.3,35.5c-3.2,0-6.4-0.5-8.8-1.4c-2.6-1-4.1-2.2-4.1-3.6H2c0,1.2,4.4,3.4,11.3,3.4
						c6.9,0,11.3-2.2,11.3-3.4h1.6c0,1.4-1.4,2.7-4.1,3.6C19.6,35,16.5,35.5,13.3,35.5z"/>
				</g>
				<g>
					<rect x="24.6" y="12.2" fill="#5D5D5D" width="1.6" height="18.4"/>
				</g>
				<g>
					<rect x="0.4" y="11.9" fill="#5D5D5D" width="1.6" height="18.7"/>
				</g>
				<g>
					<path fill="#5D5D5D" d="M39.9,9.8C33.5,9.8,27,8,27,5c0-3,6.5-4.6,12.9-4.6C46.3,0.4,52.8,2,52.8,5C52.8,8,46.2,9.8,39.9,9.8z
						 M39.9,2c-3.2,0-6.1,0.4-8.4,1.1c-2.4,0.7-3,1.5-3,1.9c0,1.1,4.3,3.2,11.4,3.2c7,0,11.4-2.1,11.4-3.2c0-0.3-0.6-1.1-3-1.9
						C46,2.4,43.1,2,39.9,2z"/>
				</g>
				<g>
					<path fill="#5D5D5D" d="M39.9,16.2c-6.4,0-12.9-1.8-12.9-4.8h1.5c0,1.1,4.3,3.2,11.4,3.2c7.1,0,11.4-2.1,11.4-3.2h1.6
						C52.8,14.4,46.2,16.2,39.9,16.2z"/>
				</g>
				<g>
					<path fill="#5D5D5D" d="M39.9,22.6c-6.4,0-12.9-1.8-12.9-4.8l1.5,0c0,1.1,4.3,3.2,11.4,3.2c7.1,0,11.4-2.1,11.4-3.2h1.6
						C52.8,20.8,46.2,22.6,39.9,22.6z"/>
				</g>
				<g>
					<path fill="#5D5D5D" d="M39.9,29.1c-6.4,0-12.9-1.8-12.9-4.8h1.5c0,1.1,4.3,3.2,11.4,3.2c7.1,0,11.4-2.1,11.4-3.2h1.6
						C52.8,27.3,46.2,29.1,39.9,29.1z"/>
				</g>
				<g>
					<path fill="#5D5D5D" d="M39.9,35.7c-3.3,0-6.4-0.5-8.8-1.4c-2.6-1-4.1-2.2-4.1-3.6h1.6c0,1.2,4.4,3.4,11.4,3.4
						c6.9,0,11.4-2.2,11.4-3.4h1.6c0,1.4-1.5,2.7-4.1,3.6C46.3,35.2,43.1,35.7,39.9,35.7z"/>
				</g>
				<g>
					<rect x="51.2" y="5" fill="#5D5D5D" width="1.6" height="26"/>
				</g>
				<g>
					<rect x="27" y="5" fill="#5D5D5D" width="1.6" height="25.9"/>
				</g>
			</g>
		</g>
	</g>
	<rect x="-16.4" y="54.6" fill="none" width="86" height="102.8"/>
	<text transform="matrix(1 0 0 1 -16.3901 58.5142)" display="none"><tspan x="0" y="0" display="inline" fill="#5D5D5D" font-family="'GothamPro'" font-size="5.5">От</tspan><tspan x="6" y="0" display="inline" fill="#5D5D5D" font-family="'GothamPro'" font-size="5.5" letter-spacing="6"> </tspan><tspan x="13.5" y="0" display="inline" fill="#5D5D5D" font-family="'GothamPro'" font-size="5.5">суммы</tspan><tspan x="29.3" y="0" display="inline" fill="#5D5D5D" font-family="'GothamPro'" font-size="5.5" letter-spacing="6"> </tspan><tspan x="36.8" y="0" display="inline" fill="#5D5D5D" font-family="'GothamPro'" font-size="5.5">покупки</tspan><tspan x="56.7" y="0" display="inline" fill="#5D5D5D" font-family="'GothamPro'" font-size="5.5" letter-spacing="6"> </tspan><tspan x="64.2" y="0" display="inline" fill="#5D5D5D" font-family="'GothamPro'" font-size="5.5">вернется </tspan><tspan x="0" y="9" display="inline" fill="#5D5D5D" font-family="'GothamPro'" font-size="5.5">в</tspan><tspan x="2.8" y="9" display="inline" fill="#5D5D5D" font-family="'GothamPro'" font-size="5.5" letter-spacing="5"> </tspan><tspan x="9.4" y="9" display="inline" fill="#5D5D5D" font-family="'GothamPro'" font-size="5.5">виде</tspan><tspan x="20.8" y="9" display="inline" fill="#5D5D5D" font-family="'GothamPro'" font-size="5.5" letter-spacing="5"> </tspan><tspan x="27.4" y="9" display="inline" fill="#5D5D5D" font-family="'GothamPro'" font-size="5.5">бонусов</tspan><tspan x="47.2" y="9" display="inline" fill="#5D5D5D" font-family="'GothamPro'" font-size="5.5" letter-spacing="5"> </tspan><tspan x="53.8" y="9" display="inline" fill="#5D5D5D" font-family="'GothamPro'" font-size="5.5">при</tspan><tspan x="62.9" y="9" display="inline" fill="#5D5D5D" font-family="'GothamPro'" font-size="5.5" letter-spacing="5"> </tspan><tspan x="69.6" y="9" display="inline" fill="#5D5D5D" font-family="'GothamPro'" font-size="5.5">оплате </tspan><tspan x="0" y="18" display="inline" fill="#5D5D5D" font-family="'GothamPro'" font-size="5.5">с</tspan><tspan x="2.5" y="18" display="inline" fill="#5D5D5D" font-family="'GothamPro'" font-size="5.5" letter-spacing="5"> </tspan><tspan x="9" y="18" display="inline" fill="#5D5D5D" font-family="'GothamPro'" font-size="5.5">помощью</tspan><tspan x="32.2" y="18" display="inline" fill="#5D5D5D" font-family="'GothamPro'" font-size="5.5" letter-spacing="5"> </tspan><tspan x="38.7" y="18" display="inline" fill="#5D5D5D" font-family="'GothamPro'" font-size="5.5">карты</tspan><tspan x="53.1" y="18" display="inline" fill="#5D5D5D" font-family="'GothamPro'" font-size="5.5" letter-spacing="5"> </tspan><tspan x="59.6" y="18" display="inline" fill="#5D5D5D" font-family="'GothamPro'" font-size="5.5">AURACARD</tspan><tspan x="0" y="27" display="inline" fill="#5D5D5D" font-family="'GothamPro'" font-size="5.5" letter-spacing="5"> </tspan><tspan x="6.4" y="27" display="inline" fill="#5D5D5D" font-family="'GothamPro'" font-size="5.5">за</tspan><tspan x="11.4" y="27" display="inline" fill="#5D5D5D" font-family="'GothamPro'" font-size="5.5" letter-spacing="5"> </tspan><tspan x="17.8" y="27" display="inline" fill="#5D5D5D" font-family="'GothamPro'" font-size="5.5">счет</tspan><tspan x="28.1" y="27" display="inline" fill="#5D5D5D" font-family="'GothamPro'" font-size="5.5" letter-spacing="5"> </tspan><tspan x="34.4" y="27" display="inline" fill="#5D5D5D" font-family="'GothamPro'" font-size="5.5">кредитного</tspan><tspan x="62.3" y="27" display="inline" fill="#5D5D5D" font-family="'GothamPro'" font-size="5.5" letter-spacing="5"> </tspan><tspan x="68.7" y="27" display="inline" fill="#5D5D5D" font-family="'GothamPro'" font-size="5.5">лимита </tspan><tspan x="0" y="36" display="inline" fill="#5D5D5D" font-family="'GothamPro'" font-size="5.5">в</tspan><tspan x="2.8" y="36" display="inline" fill="#5D5D5D" font-family="'GothamPro'" font-size="5.5" letter-spacing="4"> </tspan><tspan x="8.5" y="36" display="inline" fill="#5D5D5D" font-family="'GothamPro'" font-size="5.5">торговых</tspan><tspan x="31" y="36" display="inline" fill="#5D5D5D" font-family="'GothamPro'" font-size="5.5" letter-spacing="4"> </tspan><tspan x="36.8" y="36" display="inline" fill="#5D5D5D" font-family="'GothamPro'" font-size="5.5">предприятиях</tspan><tspan x="71" y="36" display="inline" fill="#5D5D5D" font-family="'GothamPro'" font-size="5.5" letter-spacing="4"> </tspan><tspan x="76.8" y="36" display="inline" fill="#5D5D5D" font-family="'GothamPro'" font-size="5.5">ТРЦ </tspan><tspan x="0" y="45" display="inline" fill="#5D5D5D" font-family="'GothamPro'" font-size="5.5">«АУРА»,</tspan><tspan x="18.3" y="45" display="inline" fill="#5D5D5D" font-family="'GothamPro'" font-size="5.5" letter-spacing="8"> </tspan><tspan x="27.8" y="45" display="inline" fill="#5D5D5D" font-family="'GothamPro'" font-size="5.5">кроме</tspan><tspan x="42.9" y="45" display="inline" fill="#5D5D5D" font-family="'GothamPro'" font-size="5.5" letter-spacing="8"> </tspan><tspan x="52.4" y="45" display="inline" fill="#5D5D5D" font-family="'GothamPro'" font-size="5.5">гипермаркета </tspan><tspan x="0" y="54" display="inline" fill="#5D5D5D" font-family="'GothamPro'" font-size="5.5">«Окей»</tspan></text>
</g>
</svg>
