<?xml version="1.0" encoding="utf-8"?>
<!-- Generator: Adobe Illustrator 17.1.0, SVG Export Plug-In . SVG Version: 6.00 Build 0)  -->
<!DOCTYPE svg PUBLIC "-//W3C//DTD SVG 1.1//EN" "http://www.w3.org/Graphics/SVG/1.1/DTD/svg11.dtd">
<svg version="1.1" id="Слой_1" xmlns="http://www.w3.org/2000/svg" xmlns:xlink="http://www.w3.org/1999/xlink" x="0px" y="0px"
	 viewBox="11.5 355.2 600.5 96.8" enable-background="new 11.5 355.2 600.5 96.8" xml:space="preserve">
<image display="none" overflow="visible" enable-background="new    " width="663" height="257" xlink:href="78BC5B8D.jpeg"  transform="matrix(1.886 0 0 1.886 0 340.0807)">
</image>
<image display="none" overflow="visible" enable-background="new    " width="613" height="192" xlink:href="78BC5B8F.jpeg"  transform="matrix(1.4145 0 0 1.4145 10.0585 113.7633)">
</image>
<g enable-background="new    ">
	<path fill="#515151" d="M180,437h1.6v11.7h6.3v1.5H180V437z"/>
	<path fill="#515151" d="M230.5,444.7c0,4-2.3,5.7-5,5.7c-3.1,0-5.3-1.9-5.3-5.8V437h1.6v7.3c0,2.9,1.4,4.6,3.8,4.6
		c2.1,0,3.4-1.5,3.4-4.5V437h1.6V444.7z"/>
	<path fill="#515151" d="M269.5,443.5l4.7,6.7h-1.9l-3.9-5.5l-3.9,5.5h-1.8l4.7-6.7L263,437h1.8l3.7,5.3l3.7-5.3h1.9L269.5,443.5z"
		/>
	<path fill="#515151" d="M316.9,444.7c0,4-2.3,5.7-5,5.7c-3.1,0-5.3-1.9-5.3-5.8V437h1.6v7.3c0,2.9,1.4,4.6,3.8,4.6
		c2.1,0,3.4-1.5,3.4-4.5V437h1.6V444.7z"/>
	<path fill="#515151" d="M350.8,450.3V437c0.7,0,3.1,0,3.4,0c3.5,0,4.6,1.8,4.6,3.9c0,2.1-1.4,3.4-2.8,3.7l4.3,5.6h-1.9l-3.9-5.3
		h-2.1v5.3H350.8z M352.4,438.6v4.9h1.9c1.5,0,2.9-0.9,2.9-2.5c0-1.4-0.7-2.4-3-2.4C353.8,438.5,353,438.5,352.4,438.6z"/>
	<path fill="#515151" d="M396.4,444.6v5.7h-1.6v-5.7l-4.5-7.5h1.8l3.6,6l3.6-6h1.7L396.4,444.6z"/>
	<path fill="#515151" d="M479.7,450.3h-1.4l-3.5-10.6l-3.4,10.6h-1.4L466,437h1.8l3,10.5l3.3-10.5h1.5l3.4,10.5l2.9-10.5h1.5
		L479.7,450.3z"/>
	<path fill="#515151" d="M516.2,437h1.6v13.2h-1.6V437z"/>
	<path fill="#515151" d="M557.5,443.5h4.9v5.1c-1.1,1.2-3.2,1.8-4.8,1.8c-4,0-6.5-2.7-6.5-6.8c0-3.8,2.5-6.8,6.3-6.8
		c1.7,0,3,0.4,4,1.3l-0.7,1.3c-0.8-0.7-1.9-1.1-3.2-1.1c-2.9,0-4.8,2.1-4.8,5.3c0,3.2,2,5.3,4.9,5.3c1.2,0,2.6-0.5,3.3-1.2V445h-3.5
		V443.5z"/>
	<path fill="#515151" d="M595.1,440.3c0-1.9,1.4-3.5,3.9-3.5c1.5,0,2.8,0.5,3.5,1.4l-0.8,1.2c-0.7-0.7-1.5-1.1-2.6-1.1
		c-1.4,0-2.3,0.8-2.3,1.9c0,3.3,6.3,2,6.3,6.5c0,2.2-1.9,3.6-4.2,3.6c-1.6,0-3.4-0.7-4-2l0.9-1.1c0.8,1,2.1,1.6,3.2,1.6
		c1.3,0,2.5-0.7,2.5-2.1C601.3,443.7,595.1,444.7,595.1,440.3z"/>
</g>
<g>
	<g>
		<path fill="none" d="M207.8,396.7c-5.1,0-5.1,0-5.1,0s0,0-5.1,0c-9.1,0-16.6,5.7-16.6,11.3c0,5.8,7.5,11.3,16.6,11.3
			c5.1,0,5.1,0,5.1,0s0,0,5.1,0c9.1,0,16.6-5.7,16.6-11.3S216.9,396.7,207.8,396.7z"/>
		<path fill="#5E5E5E" d="M209.5,395.7c-6.6,0-6.6,0-6.6,0s0,0-6.6,0c-11.9,0-21.7,6.8-21.7,12.6c0,5.8,10,12.6,21.7,12.6
			c6.6,0,6.6,0,6.6,0s0,0,6.6,0c11.9,0,21.7-6.8,21.7-12.6C231.2,402.5,221.2,395.7,209.5,395.7z M207.8,419.7c-5.1,0-5.1,0-5.1,0
			s0,0-5.1,0c-9.1,0-16.6-5.7-16.6-11.3c0-5.8,7.5-11.3,16.6-11.3c5.1,0,5.1,0,5.1,0s0,0,5.1,0c9.1,0,16.6,5.7,16.6,11.3
			S216.9,419.7,207.8,419.7z"/>
	</g>
	<g>
		<path fill="none" d="M394,396.7c-5.1,0-5.1,0-5.1,0s0,0-5.1,0c-9.1,0-16.6,5.7-16.6,11.3c0,5.8,7.5,11.3,16.6,11.3
			c5.1,0,5.1,0,5.1,0s0,0,5.1,0c9.1,0,16.6-5.7,16.6-11.3S403,396.7,394,396.7z"/>
		<path fill="#515050" d="M395.5,395.7c-6.6,0-6.6,0-6.6,0s0,0-6.6,0c-11.9,0-21.7,6.8-21.7,12.6c0,5.8,10,12.6,21.7,12.6
			c6.6,0,6.6,0,6.6,0s0,0,6.6,0c11.9,0,21.7-6.8,21.7-12.6C417.4,402.3,407.4,395.7,395.5,395.7z M394,419.7c-5.1,0-5.1,0-5.1,0
			s0,0-5.1,0c-9.1,0-16.6-5.7-16.6-11.3c0-5.8,7.5-11.3,16.6-11.3c5.1,0,5.1,0,5.1,0s0,0,5.1,0c9.1,0,16.6,5.7,16.6,11.3
			S403,419.7,394,419.7z"/>
	</g>
	<g>
		<path fill="#515050" d="M260.6,419.7c-9.1,0-15.7-5.8-15.7-11.3h42.2h6.8c0-5.8-10-12.6-21.7-12.6c-6.6,0-6.6,0-6.6,0s0,0-6.6,0
			c-11.9,0-21.7,6.8-21.7,12.6c0,5.8,10,12.6,21.7,12.6c6.6,0,6.6,0,6.6,0s20.4,0,26.8,0v-1.1c-5.1,0-26.8,0-26.8,0
			S265.7,419.7,260.6,419.7z M260.6,396.7c5.1,0,5.1,0,5.1,0s0,0,5.1,0c8.3,0,15.5,4.9,15.5,10.2h-41.1
			C245.2,401.8,252.3,396.7,260.6,396.7z"/>
	</g>
	<path fill="#515050" d="M604.3,407L604.3,407h-41.1c0-5.3,7.2-10.2,15.5-10.2c5.1,0,5.1,0,5.1,0s14.7,0,19.8,0l1.5-1.1
		c-6.6,0-21.3,0-21.3,0s0,0-6.6,0c-11.9,0-21.7,6.8-21.7,12.6h7.7l0,0h41.1c0,5.3-7.2,10.2-15.5,10.2c-5.1,0-5.1,0-5.1,0
		s-14.7,0-19.8,0l-1.5,1.1c6.6,0,21.3,0,21.3,0s0,0,6.6,0c11.9,0,21.7-6.8,21.7-12.6H604.3z"/>
	<g>
		<path fill="none" d="M457.2,396.7c-5.1,0-5.1,0-5.1,0s0,0-5.1,0c-9.1,0-16.6,5.7-16.6,11.3c0,5.8,7.5,11.3,16.6,11.3
			c5.1,0,5.1,0,5.1,0s0,0,5.1,0c7,0,11.7-3.4,13.4-7.5v-7.5C468.7,400.1,464.1,396.7,457.2,396.7z"/>
		<path fill="#515050" d="M474.3,355.2h-2.1c-0.9,0-1.9,0.8-1.9,1.9v42.1c-2.6-2.1-6.4-3.6-11.7-3.6c-6.6,0-6.6,0-6.6,0s0,0-6.6,0
			c-11.9,0-21.7,6.8-21.7,12.6s10,12.6,21.7,12.6c6.6,0,6.6,0,6.6,0s0,0,6.6,0c5.5,0,9.2-1.3,11.7-3.4v1.5c0,0.9,0.8,1.9,1.9,1.9
			h2.1c0.9,0,1.9-0.8,1.9-1.9v-61.9C476.2,356.1,475.3,355.2,474.3,355.2z M457.2,419.7c-5.1,0-5.1,0-5.1,0s0,0-5.1,0
			c-9.1,0-16.6-5.7-16.6-11.3c0-5.8,7.5-11.3,16.6-11.3c5.1,0,5.1,0,5.1,0s0,0,5.1,0c7,0,11.7,3.4,13.4,7.5v7.5
			C468.7,416.1,464.1,419.7,457.2,419.7z"/>
	</g>
	<path fill="#515050" d="M526,395.7c-0.2,0-0.6,0-0.8,0c-1.3,0-1.7,0-1.7,0c-0.2,0-0.4,0-0.8,0c-5.1,0-9.6,1.3-12.8,3.2
		c0-0.8,0-1.3,0-1.9v-0.4c0-0.9-0.8-1.9-1.9-1.9H506c-0.9,0-1.9,0.8-1.9,1.9v22.3c0,0.9,0.8,1.9,1.9,1.9h2.1c0.9,0,1.9-0.8,1.9-1.9
		v-14.3c0-0.6,0-1.1,0-1.9c2.8-3.4,8.3-6,14.3-6c9.1,0,17.5,5.7,17.5,11.3v10.8c0,0.9-0.2,1.9,0.9,1.9h3c0.9,0,1.9-0.8,1.9-1.9V408
		C547.9,402.3,537.9,395.7,526,395.7z"/>
	<g>
		<g>
			<path fill="#515050" d="M494.1,418.9c0,0.9-0.8,1.9-1.9,1.9h-2.1c-0.9,0-1.9-0.8-1.9-1.9v-50.4c0-0.9,0.8-1.9,1.9-1.9h2.1
				c0.9,0,1.9,0.8,1.9,1.9V418.9z"/>
		</g>
		<g>
			<path fill="#515050" d="M494.1,359.5c0,0.9-0.8,1.9-1.9,1.9h-2.1c-0.9,0-1.9-0.8-1.9-1.9v-2.3c0-0.9,0.8-1.9,1.9-1.9h2.1
				c0.9,0,1.9,0.8,1.9,1.9V359.5z"/>
		</g>
	</g>
	<path fill="#515050" d="M195.2,359.9l-1.5-1.1c0,0-63.4,74.1-90.3,73.4c-0.2,0,0,0,0,0C76.6,433.1,13,358.8,13,358.8l-1.5,1.1
		c0,0,32.3,41.3,59.4,68.5c13.6,13.6,23.2,21.9,31.1,23.4c0.4,0.2,0.8,0.2,1.3,0.2c0.4,0,0.8,0,1.3-0.2c7.9-1.3,17.5-9.8,31.1-23.4
		C163.1,401.4,195.2,359.9,195.2,359.9z"/>
	<path fill="#515050" d="M359.3,395.2l-1.5-0.4c0,0-20.4,24.9-29.4,24.5l0,0c-9.1,0.2-29.4-24.5-29.4-24.5l-1.5,0.4
		c0,0,10.8,13.8,20,23c4.5,4.5,7.7,7.4,10.4,7.7c0.2,0,0.2,0,0.4,0c0.2,0,0.2,0,0.4,0c2.6-0.4,5.8-3.2,10.4-7.7
		C348.5,408.9,359.3,395.2,359.3,395.2z"/>
</g>
</svg>
