<?xml version="1.0" encoding="utf-8"?>
<!-- Generator: Adobe Illustrator 17.1.0, SVG Export Plug-In . SVG Version: 6.00 Build 0)  -->
<!DOCTYPE svg PUBLIC "-//W3C//DTD SVG 1.1//EN" "http://www.w3.org/Graphics/SVG/1.1/DTD/svg11.dtd">
<svg version="1.1" id="Слой_1" xmlns="http://www.w3.org/2000/svg" xmlns:xlink="http://www.w3.org/1999/xlink" x="0px" y="0px"
	 viewBox="242.9 359.9 120 60.6" enable-background="new 242.9 359.9 120 60.6" xml:space="preserve">
<image display="none" overflow="visible" enable-background="new    " width="663" height="257" xlink:href="73D542DA.jpeg"  transform="matrix(4.59 0 0 4.59 -36.72 383.76)">
</image>
<image display="none" overflow="visible" enable-background="new    " width="613" height="192" xlink:href="73D542DE.jpeg"  transform="matrix(4.59 0 0 4.59 32.6398 -644.4)">
</image>
<rect x="302.3" y="359.9" fill="#FFFFFF" width="60.6" height="60.6"/>
<g>
	<g>
		<path fill="#515050" d="M318.6,412.3l-10.3-44.8h5.6l4.8,22.6c1.2,5.6,2.3,11.2,3,15.5h0.1c0.7-4.4,1.9-9.8,3.3-15.5l5.4-22.6h5.5
			l5,22.7c1.1,5.3,2.2,10.6,2.8,15.3h0.1c0.8-4.9,2-9.9,3.3-15.5l5.4-22.6h5.4l-11.5,44.8h-5.5l-5.1-23.3
			c-1.3-5.7-2.1-10.1-2.7-14.6H333c-0.7,4.4-1.6,8.8-3.1,14.6l-5.8,23.3H318.6z"/>
		<path fill="#515050" d="M307.3,420.6v-3.3h51.1v3.3H307.3z"/>
	</g>
</g>
<rect x="241.7" y="359.9" fill="#515050" width="60.6" height="60.6"/>
<g>
	<g enable-background="new    ">
		<path fill="#FDFDFD" d="M257.3,412.3L247,367.5h5.6l4.8,22.6c1.2,5.6,2.3,11.2,3,15.5h0.1c0.7-4.4,1.9-9.8,3.3-15.5l5.4-22.6h5.5
			l5,22.7c1.1,5.3,2.2,10.6,2.8,15.3h0.1c0.8-4.9,2-9.9,3.3-15.5l5.4-22.6h5.4l-11.5,44.8h-5.5l-5.1-23.3
			c-1.3-5.7-2.1-10.1-2.7-14.6h-0.1c-0.7,4.4-1.6,8.8-3.1,14.6l-5.8,23.3H257.3z"/>
	</g>
</g>
</svg>
